<mxfile host="Electron" agent="Mozilla/5.0 (Windows NT 10.0; Win64; x64) AppleWebKit/537.36 (KHTML, like Gecko) draw.io/27.0.9 Chrome/134.0.6998.205 Electron/35.4.0 Safari/537.36" version="27.0.9">
  <diagram name="Página-1" id="smkluBR05zlRFK5rLyu5">
    <mxGraphModel dx="1773" dy="661" grid="1" gridSize="10" guides="1" tooltips="1" connect="1" arrows="1" fold="1" page="1" pageScale="1" pageWidth="827" pageHeight="1169" math="0" shadow="0">
      <root>
        <mxCell id="0" />
        <mxCell id="1" parent="0" />
        <mxCell id="vlGT-pbq5eQOCQV0v1nJ-1" value="&lt;div style=&quot;line-height: 100%;&quot;&gt;&lt;div style=&quot;line-height: 100%;&quot;&gt;Ejercicio 35: Compañía aérea&lt;/div&gt;&lt;div style=&quot;line-height: 100%;&quot;&gt;&lt;br&gt;&lt;/div&gt;&lt;div style=&quot;line-height: 100%;&quot;&gt;&lt;font style=&quot;color: rgb(0, 204, 0);&quot;&gt;Los vuelos tienen un identificador único, una breve descripción y una fecha. Además,&lt;/font&gt; cada vuelo tiene&lt;/div&gt;&lt;div style=&quot;line-height: 100%;&quot;&gt;asignado un aeropuerto de origen y uno de destino (se asume que no hay escalas). &lt;font style=&quot;color: rgb(0, 204, 0);&quot;&gt;Los aeropuertos están&lt;/font&gt;&lt;/div&gt;&lt;div style=&quot;line-height: 100%;&quot;&gt;&lt;font style=&quot;color: rgb(0, 204, 0);&quot;&gt;identificados por unas siglas únicas, por ejemplo: VLC-Valencia, BCN-Barcelona, MAD-Madrid. Además,&lt;/font&gt;&lt;/div&gt;&lt;div style=&quot;line-height: 100%;&quot;&gt;&lt;font style=&quot;color: rgb(0, 204, 0);&quot;&gt;de cada aeropuerto se guarda el nombre de la ciudad en la que está situado y el país&lt;/font&gt;.&lt;font style=&quot;color: rgb(102, 255, 102);&quot;&gt; Cada vuelo es realizado&lt;/font&gt;&lt;/div&gt;&lt;div style=&quot;line-height: 100%;&quot;&gt;&lt;font style=&quot;color: rgb(102, 255, 102);&quot;&gt;por un avión, pero un avión podrá realizar muchos vuelos a lo largo de su vida útil. Los aviones tienen una&lt;/font&gt;&lt;/div&gt;&lt;div style=&quot;line-height: 100%;&quot;&gt;&lt;font style=&quot;color: rgb(102, 255, 102);&quot;&gt;matrícula que los identifica, el fabricante, un modelo e información sobre su capacidad (número máximo de&lt;/font&gt;&lt;/div&gt;&lt;div style=&quot;line-height: 100%;&quot;&gt;&lt;font style=&quot;color: rgb(102, 255, 102);&quot;&gt;pasajeros) y autonomía de vuelo (en horas).&lt;/font&gt;&lt;/div&gt;&lt;/div&gt;" style="text;html=1;align=left;verticalAlign=middle;whiteSpace=wrap;rounded=0;" vertex="1" parent="1">
          <mxGeometry x="-100" y="50" width="630" height="120" as="geometry" />
        </mxCell>
        <mxCell id="vlGT-pbq5eQOCQV0v1nJ-2" value="vuelo" style="whiteSpace=wrap;html=1;align=center;fillColor=#f0a30a;strokeColor=#BD7000;fontColor=#000000;" vertex="1" parent="1">
          <mxGeometry x="160" y="280" width="60" height="40" as="geometry" />
        </mxCell>
        <mxCell id="vlGT-pbq5eQOCQV0v1nJ-3" value="aeropuerto" style="whiteSpace=wrap;html=1;align=center;fillColor=#f0a30a;strokeColor=#BD7000;fontColor=#000000;" vertex="1" parent="1">
          <mxGeometry x="413" y="280" width="80" height="40" as="geometry" />
        </mxCell>
        <mxCell id="vlGT-pbq5eQOCQV0v1nJ-6" value="avion" style="whiteSpace=wrap;html=1;align=center;fillColor=#f0a30a;strokeColor=#BD7000;fontColor=#000000;" vertex="1" parent="1">
          <mxGeometry x="-40" y="280" width="60" height="40" as="geometry" />
        </mxCell>
        <mxCell id="vlGT-pbq5eQOCQV0v1nJ-7" value="realiza" style="shape=rhombus;perimeter=rhombusPerimeter;whiteSpace=wrap;html=1;align=center;fillColor=#76608a;fontColor=#ffffff;strokeColor=#432D57;" vertex="1" parent="1">
          <mxGeometry x="60" y="280" width="60" height="40" as="geometry" />
        </mxCell>
        <mxCell id="vlGT-pbq5eQOCQV0v1nJ-8" value="" style="endArrow=none;html=1;rounded=0;exitX=0;exitY=0.5;exitDx=0;exitDy=0;entryX=1;entryY=0.5;entryDx=0;entryDy=0;" edge="1" source="vlGT-pbq5eQOCQV0v1nJ-7" parent="1" target="vlGT-pbq5eQOCQV0v1nJ-6">
          <mxGeometry relative="1" as="geometry">
            <mxPoint x="37" y="270" as="sourcePoint" />
            <mxPoint x="-10" y="300" as="targetPoint" />
          </mxGeometry>
        </mxCell>
        <mxCell id="vlGT-pbq5eQOCQV0v1nJ-9" value="(1,1)" style="resizable=0;html=1;whiteSpace=wrap;align=right;verticalAlign=bottom;" connectable="0" vertex="1" parent="vlGT-pbq5eQOCQV0v1nJ-8">
          <mxGeometry x="1" relative="1" as="geometry">
            <mxPoint x="34" as="offset" />
          </mxGeometry>
        </mxCell>
        <mxCell id="vlGT-pbq5eQOCQV0v1nJ-10" value="" style="endArrow=none;html=1;rounded=0;exitX=1;exitY=0.5;exitDx=0;exitDy=0;entryX=0;entryY=0.5;entryDx=0;entryDy=0;" edge="1" source="vlGT-pbq5eQOCQV0v1nJ-7" parent="1" target="vlGT-pbq5eQOCQV0v1nJ-2">
          <mxGeometry relative="1" as="geometry">
            <mxPoint x="37" y="270" as="sourcePoint" />
            <mxPoint x="210" y="300" as="targetPoint" />
          </mxGeometry>
        </mxCell>
        <mxCell id="vlGT-pbq5eQOCQV0v1nJ-11" value="(1,N)" style="resizable=0;html=1;whiteSpace=wrap;align=right;verticalAlign=bottom;" connectable="0" vertex="1" parent="vlGT-pbq5eQOCQV0v1nJ-10">
          <mxGeometry x="1" relative="1" as="geometry">
            <mxPoint as="offset" />
          </mxGeometry>
        </mxCell>
        <mxCell id="vlGT-pbq5eQOCQV0v1nJ-12" value="" style="endArrow=none;html=1;rounded=0;exitX=0.5;exitY=1;exitDx=0;exitDy=0;" edge="1" target="vlGT-pbq5eQOCQV0v1nJ-13" parent="1" source="vlGT-pbq5eQOCQV0v1nJ-6">
          <mxGeometry relative="1" as="geometry">
            <mxPoint x="-60" y="365" as="sourcePoint" />
            <mxPoint y="365" as="targetPoint" />
          </mxGeometry>
        </mxCell>
        <mxCell id="vlGT-pbq5eQOCQV0v1nJ-13" value="&lt;u&gt;matricula&lt;/u&gt;" style="ellipse;whiteSpace=wrap;html=1;align=center;" vertex="1" parent="1">
          <mxGeometry x="-40" y="380" width="60" height="30" as="geometry" />
        </mxCell>
        <mxCell id="vlGT-pbq5eQOCQV0v1nJ-14" value="" style="endArrow=none;html=1;rounded=0;exitX=0.25;exitY=1;exitDx=0;exitDy=0;" edge="1" target="vlGT-pbq5eQOCQV0v1nJ-15" parent="1" source="vlGT-pbq5eQOCQV0v1nJ-6">
          <mxGeometry relative="1" as="geometry">
            <mxPoint x="-120" y="365" as="sourcePoint" />
            <mxPoint x="-60" y="365" as="targetPoint" />
          </mxGeometry>
        </mxCell>
        <mxCell id="vlGT-pbq5eQOCQV0v1nJ-15" value="fabricante" style="ellipse;whiteSpace=wrap;html=1;align=center;" vertex="1" parent="1">
          <mxGeometry x="-90" y="350" width="65" height="30" as="geometry" />
        </mxCell>
        <mxCell id="vlGT-pbq5eQOCQV0v1nJ-16" value="" style="endArrow=none;html=1;rounded=0;exitX=0.75;exitY=1;exitDx=0;exitDy=0;" edge="1" target="vlGT-pbq5eQOCQV0v1nJ-17" parent="1" source="vlGT-pbq5eQOCQV0v1nJ-6">
          <mxGeometry relative="1" as="geometry">
            <mxPoint y="365" as="sourcePoint" />
            <mxPoint x="60" y="365" as="targetPoint" />
          </mxGeometry>
        </mxCell>
        <mxCell id="vlGT-pbq5eQOCQV0v1nJ-17" value="modelo" style="ellipse;whiteSpace=wrap;html=1;align=center;" vertex="1" parent="1">
          <mxGeometry x="10" y="350" width="50" height="30" as="geometry" />
        </mxCell>
        <mxCell id="vlGT-pbq5eQOCQV0v1nJ-18" value="" style="endArrow=none;html=1;rounded=0;exitX=0;exitY=0.75;exitDx=0;exitDy=0;" edge="1" target="vlGT-pbq5eQOCQV0v1nJ-19" parent="1" source="vlGT-pbq5eQOCQV0v1nJ-6">
          <mxGeometry relative="1" as="geometry">
            <mxPoint x="-200" y="335" as="sourcePoint" />
            <mxPoint x="-140" y="335" as="targetPoint" />
          </mxGeometry>
        </mxCell>
        <mxCell id="vlGT-pbq5eQOCQV0v1nJ-19" value="maxPasajeros" style="ellipse;whiteSpace=wrap;html=1;align=center;" vertex="1" parent="1">
          <mxGeometry x="-150" y="310" width="95" height="30" as="geometry" />
        </mxCell>
        <mxCell id="vlGT-pbq5eQOCQV0v1nJ-20" value="" style="endArrow=none;html=1;rounded=0;exitX=0;exitY=0.25;exitDx=0;exitDy=0;" edge="1" target="vlGT-pbq5eQOCQV0v1nJ-21" parent="1" source="vlGT-pbq5eQOCQV0v1nJ-6">
          <mxGeometry relative="1" as="geometry">
            <mxPoint x="-140" y="275" as="sourcePoint" />
            <mxPoint x="-80" y="275" as="targetPoint" />
          </mxGeometry>
        </mxCell>
        <mxCell id="vlGT-pbq5eQOCQV0v1nJ-21" value="autonomia" style="ellipse;whiteSpace=wrap;html=1;align=center;" vertex="1" parent="1">
          <mxGeometry x="-140" y="270" width="70" height="30" as="geometry" />
        </mxCell>
        <mxCell id="vlGT-pbq5eQOCQV0v1nJ-22" value="" style="endArrow=none;html=1;rounded=0;exitX=0.5;exitY=1;exitDx=0;exitDy=0;" edge="1" target="vlGT-pbq5eQOCQV0v1nJ-23" parent="1" source="vlGT-pbq5eQOCQV0v1nJ-2">
          <mxGeometry relative="1" as="geometry">
            <mxPoint x="148" y="385" as="sourcePoint" />
            <mxPoint x="208" y="385" as="targetPoint" />
          </mxGeometry>
        </mxCell>
        <mxCell id="vlGT-pbq5eQOCQV0v1nJ-23" value="&lt;u&gt;identificador&lt;/u&gt;" style="ellipse;whiteSpace=wrap;html=1;align=center;" vertex="1" parent="1">
          <mxGeometry x="146.5" y="370" width="87" height="30" as="geometry" />
        </mxCell>
        <mxCell id="vlGT-pbq5eQOCQV0v1nJ-24" value="" style="endArrow=none;html=1;rounded=0;exitX=0.25;exitY=1;exitDx=0;exitDy=0;" edge="1" target="vlGT-pbq5eQOCQV0v1nJ-25" parent="1" source="vlGT-pbq5eQOCQV0v1nJ-2">
          <mxGeometry relative="1" as="geometry">
            <mxPoint x="75" y="355" as="sourcePoint" />
            <mxPoint x="135" y="355" as="targetPoint" />
          </mxGeometry>
        </mxCell>
        <mxCell id="vlGT-pbq5eQOCQV0v1nJ-25" value="desrip" style="ellipse;whiteSpace=wrap;html=1;align=center;" vertex="1" parent="1">
          <mxGeometry x="110" y="340" width="50" height="30" as="geometry" />
        </mxCell>
        <mxCell id="vlGT-pbq5eQOCQV0v1nJ-26" value="" style="endArrow=none;html=1;rounded=0;exitX=0.75;exitY=1;exitDx=0;exitDy=0;" edge="1" target="vlGT-pbq5eQOCQV0v1nJ-27" parent="1" source="vlGT-pbq5eQOCQV0v1nJ-2">
          <mxGeometry relative="1" as="geometry">
            <mxPoint x="195" y="355" as="sourcePoint" />
            <mxPoint x="255" y="355" as="targetPoint" />
          </mxGeometry>
        </mxCell>
        <mxCell id="vlGT-pbq5eQOCQV0v1nJ-27" value="fecha" style="ellipse;whiteSpace=wrap;html=1;align=center;" vertex="1" parent="1">
          <mxGeometry x="220" y="340" width="50" height="30" as="geometry" />
        </mxCell>
        <mxCell id="vlGT-pbq5eQOCQV0v1nJ-28" value="" style="endArrow=none;html=1;rounded=0;exitX=1;exitY=0.25;exitDx=0;exitDy=0;" edge="1" target="vlGT-pbq5eQOCQV0v1nJ-29" parent="1" source="vlGT-pbq5eQOCQV0v1nJ-3">
          <mxGeometry relative="1" as="geometry">
            <mxPoint x="510" y="300" as="sourcePoint" />
            <mxPoint x="570" y="300" as="targetPoint" />
          </mxGeometry>
        </mxCell>
        <mxCell id="vlGT-pbq5eQOCQV0v1nJ-29" value="ciudad" style="ellipse;whiteSpace=wrap;html=1;align=center;" vertex="1" parent="1">
          <mxGeometry x="520" y="270" width="50" height="30" as="geometry" />
        </mxCell>
        <mxCell id="vlGT-pbq5eQOCQV0v1nJ-30" value="" style="endArrow=none;html=1;rounded=0;exitX=1;exitY=0.75;exitDx=0;exitDy=0;" edge="1" target="vlGT-pbq5eQOCQV0v1nJ-31" parent="1" source="vlGT-pbq5eQOCQV0v1nJ-3">
          <mxGeometry relative="1" as="geometry">
            <mxPoint x="493" y="335" as="sourcePoint" />
            <mxPoint x="553" y="335" as="targetPoint" />
          </mxGeometry>
        </mxCell>
        <mxCell id="vlGT-pbq5eQOCQV0v1nJ-31" value="pais" style="ellipse;whiteSpace=wrap;html=1;align=center;" vertex="1" parent="1">
          <mxGeometry x="520" y="300" width="50" height="30" as="geometry" />
        </mxCell>
        <mxCell id="vlGT-pbq5eQOCQV0v1nJ-32" value="" style="endArrow=none;html=1;rounded=0;exitX=0.5;exitY=0;exitDx=0;exitDy=0;" edge="1" target="vlGT-pbq5eQOCQV0v1nJ-33" parent="1" source="vlGT-pbq5eQOCQV0v1nJ-3">
          <mxGeometry relative="1" as="geometry">
            <mxPoint x="390" y="225" as="sourcePoint" />
            <mxPoint x="450" y="225" as="targetPoint" />
          </mxGeometry>
        </mxCell>
        <mxCell id="vlGT-pbq5eQOCQV0v1nJ-33" value="&lt;u&gt;siglas&lt;/u&gt;" style="ellipse;whiteSpace=wrap;html=1;align=center;" vertex="1" parent="1">
          <mxGeometry x="428" y="220" width="50" height="30" as="geometry" />
        </mxCell>
        <mxCell id="vlGT-pbq5eQOCQV0v1nJ-34" value="utiliza" style="shape=rhombus;perimeter=rhombusPerimeter;whiteSpace=wrap;html=1;align=center;fillColor=#76608a;fontColor=#ffffff;strokeColor=#432D57;" vertex="1" parent="1">
          <mxGeometry x="280" y="280" width="90" height="40" as="geometry" />
        </mxCell>
        <mxCell id="vlGT-pbq5eQOCQV0v1nJ-35" value="" style="endArrow=none;html=1;rounded=0;exitX=0;exitY=0.5;exitDx=0;exitDy=0;entryX=1;entryY=0.5;entryDx=0;entryDy=0;" edge="1" source="vlGT-pbq5eQOCQV0v1nJ-34" parent="1" target="vlGT-pbq5eQOCQV0v1nJ-2">
          <mxGeometry relative="1" as="geometry">
            <mxPoint x="237" y="210" as="sourcePoint" />
            <mxPoint x="190" y="240" as="targetPoint" />
          </mxGeometry>
        </mxCell>
        <mxCell id="vlGT-pbq5eQOCQV0v1nJ-36" value="(1,N)" style="resizable=0;html=1;whiteSpace=wrap;align=right;verticalAlign=bottom;" connectable="0" vertex="1" parent="vlGT-pbq5eQOCQV0v1nJ-35">
          <mxGeometry x="1" relative="1" as="geometry">
            <mxPoint x="34" as="offset" />
          </mxGeometry>
        </mxCell>
        <mxCell id="vlGT-pbq5eQOCQV0v1nJ-37" value="" style="endArrow=none;html=1;rounded=0;exitX=1;exitY=0.5;exitDx=0;exitDy=0;entryX=0;entryY=0.5;entryDx=0;entryDy=0;" edge="1" source="vlGT-pbq5eQOCQV0v1nJ-34" parent="1" target="vlGT-pbq5eQOCQV0v1nJ-3">
          <mxGeometry relative="1" as="geometry">
            <mxPoint x="237" y="210" as="sourcePoint" />
            <mxPoint x="410" y="240" as="targetPoint" />
          </mxGeometry>
        </mxCell>
        <mxCell id="vlGT-pbq5eQOCQV0v1nJ-38" value="(1,M)" style="resizable=0;html=1;whiteSpace=wrap;align=right;verticalAlign=bottom;" connectable="0" vertex="1" parent="vlGT-pbq5eQOCQV0v1nJ-37">
          <mxGeometry x="1" relative="1" as="geometry">
            <mxPoint as="offset" />
          </mxGeometry>
        </mxCell>
        <mxCell id="vlGT-pbq5eQOCQV0v1nJ-39" value="" style="endArrow=none;html=1;rounded=0;exitX=0.5;exitY=0;exitDx=0;exitDy=0;" edge="1" target="vlGT-pbq5eQOCQV0v1nJ-40" parent="1" source="vlGT-pbq5eQOCQV0v1nJ-34">
          <mxGeometry relative="1" as="geometry">
            <mxPoint x="270" y="235" as="sourcePoint" />
            <mxPoint x="330" y="235" as="targetPoint" />
          </mxGeometry>
        </mxCell>
        <mxCell id="vlGT-pbq5eQOCQV0v1nJ-40" value="origen" style="ellipse;whiteSpace=wrap;html=1;align=center;" vertex="1" parent="1">
          <mxGeometry x="287.5" y="220" width="75" height="30" as="geometry" />
        </mxCell>
        <mxCell id="vlGT-pbq5eQOCQV0v1nJ-41" value="" style="endArrow=none;html=1;rounded=0;exitX=0.5;exitY=1;exitDx=0;exitDy=0;" edge="1" target="vlGT-pbq5eQOCQV0v1nJ-42" parent="1" source="vlGT-pbq5eQOCQV0v1nJ-34">
          <mxGeometry relative="1" as="geometry">
            <mxPoint x="288" y="365" as="sourcePoint" />
            <mxPoint x="348" y="365" as="targetPoint" />
          </mxGeometry>
        </mxCell>
        <mxCell id="vlGT-pbq5eQOCQV0v1nJ-42" value="destino" style="ellipse;whiteSpace=wrap;html=1;align=center;" vertex="1" parent="1">
          <mxGeometry x="290" y="350" width="70" height="30" as="geometry" />
        </mxCell>
      </root>
    </mxGraphModel>
  </diagram>
</mxfile>
